<svg width="28" height="28" viewBox="0 0 28 28" fill="none" xmlns="http://www.w3.org/2000/svg">
<path d="M23.333 16.625C24.7828 16.625 25.958 15.4497 25.958 14C25.958 12.5503 24.7828 11.375 23.333 11.375C21.8833 11.375 20.708 12.5503 20.708 14C20.708 15.4497 21.8833 16.625 23.333 16.625Z" fill="#402D28"/>
<path d="M23.333 7.29175C24.7828 7.29175 25.958 6.1165 25.958 4.66675C25.958 3.217 24.7828 2.04175 23.333 2.04175C21.8833 2.04175 20.708 3.217 20.708 4.66675C20.708 6.1165 21.8833 7.29175 23.333 7.29175Z" fill="#402D28"/>
<path d="M23.333 25.9583C24.7828 25.9583 25.958 24.783 25.958 23.3333C25.958 21.8835 24.7828 20.7083 23.333 20.7083C21.8833 20.7083 20.708 21.8835 20.708 23.3333C20.708 24.783 21.8833 25.9583 23.333 25.9583Z" fill="#402D28"/>
<path d="M4.66699 16.625C6.11674 16.625 7.29199 15.4497 7.29199 14C7.29199 12.5503 6.11674 11.375 4.66699 11.375C3.21724 11.375 2.04199 12.5503 2.04199 14C2.04199 15.4497 3.21724 16.625 4.66699 16.625Z" fill="#402D28"/>
<path d="M22.1663 14.8751C22.6447 14.8751 23.0413 14.4784 23.0413 14.0001C23.0413 13.5217 22.6447 13.1251 22.1663 13.1251H13.708V8.16675C13.708 6.32341 14.4897 5.54175 16.333 5.54175H22.1663C22.6447 5.54175 23.0413 5.14508 23.0413 4.66675C23.0413 4.18841 22.6447 3.79175 22.1663 3.79175H16.333C13.5097 3.79175 11.958 5.34341 11.958 8.16675V13.1251H5.83301C5.35467 13.1251 4.95801 13.5217 4.95801 14.0001C4.95801 14.4784 5.35467 14.8751 5.83301 14.8751H11.958V19.8334C11.958 22.6567 13.5097 24.2084 16.333 24.2084H22.1663C22.6447 24.2084 23.0413 23.8117 23.0413 23.3334C23.0413 22.8551 22.6447 22.4584 22.1663 22.4584H16.333C14.4897 22.4584 13.708 21.6768 13.708 19.8334V14.8751H22.1663Z" fill="#402D28"/>
</svg>
