<svg width="28" height="28" viewBox="0 0 28 28" fill="none" xmlns="http://www.w3.org/2000/svg">
<path d="M19.8337 25.6667H8.16699C7.68866 25.6667 7.29199 25.2701 7.29199 24.7917C7.29199 24.3134 7.68866 23.9167 8.16699 23.9167H19.8337C20.312 23.9167 20.7087 24.3134 20.7087 24.7917C20.7087 25.2701 20.312 25.6667 19.8337 25.6667Z" fill="#402D28"/>
<path d="M23.7419 6.44013L19.0753 9.77679C18.4569 10.2201 17.5703 9.95179 17.3019 9.24013L15.0969 3.36013C14.7236 2.34513 13.2886 2.34513 12.9153 3.36013L10.6986 9.22846C10.4303 9.95179 9.55526 10.2201 8.93692 9.76513L4.27026 6.42846C3.33692 5.77513 2.10026 6.69679 2.48526 7.78179L7.33859 21.3735C7.50192 21.8401 7.94526 22.1435 8.43526 22.1435H19.5536C20.0436 22.1435 20.4869 21.8285 20.6503 21.3735L25.5036 7.78179C25.9003 6.69679 24.6636 5.77513 23.7419 6.44013ZM16.9169 17.2085H11.0836C10.6053 17.2085 10.2086 16.8118 10.2086 16.3335C10.2086 15.8551 10.6053 15.4585 11.0836 15.4585H16.9169C17.3953 15.4585 17.7919 15.8551 17.7919 16.3335C17.7919 16.8118 17.3953 17.2085 16.9169 17.2085Z" fill="#402D28"/>
</svg>
