<svg width="41" height="41" viewBox="0 0 41 41" fill="none" xmlns="http://www.w3.org/2000/svg">
<path d="M24.56 6.88623C31.9093 9.31917 35.9009 17.2057 33.4963 24.542C31.083 31.9044 23.1303 35.9205 15.7979 33.48C8.45887 31.0378 4.4732 23.1274 6.89383 15.8065C9.31889 8.47026 17.249 4.46645 24.56 6.88623Z" fill="#29296A"/>
<path d="M11.9629 15.7962C13.4045 15.968 14.5233 16.5825 15.2873 17.6226C15.7558 18.2604 16.1737 18.932 16.5292 19.618C17.3445 21.1917 18.2794 22.8476 19.5897 24.2972C20.6989 25.5255 21.8794 26.417 23.1986 27.0245C25.8661 28.2533 28.9631 27.6131 30.9031 25.4325C30.9743 25.3526 31.1594 25.1246 31.3441 24.8905C31.5328 24.6517 31.7041 24.3945 31.8542 24.1269L32.2735 23.3767C31.3929 23.4542 30.556 23.5376 29.7195 23.587C28.8725 23.6371 28.0347 23.5678 27.2352 23.2385C26.4536 22.917 25.8544 22.3558 25.3649 21.7033C24.4138 20.4356 23.5014 19.138 22.6038 17.8315C21.7688 16.6163 20.9836 15.3682 19.8644 14.3774C18.725 13.3678 17.4465 12.6158 15.9425 12.3306C13.7193 11.9087 11.7296 12.448 10.0093 13.9216C9.35334 14.4838 8.8041 15.1362 8.44782 15.9304C9.49318 15.7749 10.7113 15.6471 11.9634 15.7964L11.9629 15.7962Z" fill="#FAFAFA"/>
<path d="M23.7519 27.8497C23.4853 27.7623 23.222 27.6592 22.9614 27.539C21.5711 26.8992 20.3309 25.9629 19.1691 24.6772C17.8156 23.1799 16.8584 21.4859 16.0259 19.8785C15.6841 19.2185 15.2819 18.5724 14.8308 17.9583C14.154 17.0368 13.1943 16.5135 11.8968 16.3596C10.8964 16.2406 9.90762 16.3096 9.01733 16.4242C9.11898 16.4839 9.21938 16.5456 9.31513 16.6142C10.2494 17.2828 10.9605 18.1675 11.5799 19.1159C12.5229 20.5603 13.404 22.045 14.3422 23.4927C15.8356 25.7992 17.694 27.7135 20.2695 28.8203C21.9801 29.5555 23.7546 29.7607 25.5756 29.3535C27.3119 28.9647 28.7508 28.1411 29.9646 26.9954C28.1537 28.2143 25.8746 28.5453 23.7525 27.8499L23.7519 27.8497Z" fill="#EC5D2C"/>
<path d="M29.2112 14.6375C29.2538 14.7895 29.2983 14.8791 29.3005 14.9693C29.3074 15.2836 29.3052 15.5979 29.2963 15.9125C29.2873 16.2366 29.413 16.483 29.6808 16.6656C29.9483 16.8475 30.2138 17.0335 30.4712 17.2295C30.5351 17.278 30.5636 17.3725 30.608 17.4459C30.5248 17.4871 30.4437 17.5589 30.3582 17.5633C30.0725 17.5783 29.784 17.5834 29.4989 17.565C29.0975 17.539 28.804 17.6823 28.5917 18.028C28.4371 18.2798 28.2574 18.5168 28.0754 18.75C28.0281 18.8101 27.9297 18.8301 27.854 18.8689C27.8167 18.7924 27.7506 18.7174 27.7477 18.6402C27.7354 18.3169 27.7347 17.9932 27.7435 17.6696C27.7527 17.345 27.6308 17.0998 27.3588 16.9189C27.0892 16.7399 26.824 16.5528 26.5672 16.357C26.5032 16.3084 26.4777 16.2106 26.434 16.1351C26.5175 16.0929 26.5991 16.0176 26.6843 16.0143C26.998 16.0019 27.3131 16.0073 27.6274 16.0167C27.9615 16.0265 28.216 15.9035 28.402 15.62C28.5739 15.3571 28.7584 15.1019 28.947 14.8504C29.0009 14.7793 29.0896 14.7339 29.2117 14.6377L29.2112 14.6375Z" fill="#FAFAFA"/>
<path d="M11.4059 24.7374C11.2753 25.1453 10.865 25.3571 10.4591 25.2277C10.0386 25.0935 9.82311 24.6742 9.96221 24.2607C10.0976 23.8586 10.5108 23.6543 10.9194 23.7882C11.3285 23.9223 11.5371 24.3297 11.4064 24.7376L11.4059 24.7374Z" fill="#FAFAFA"/>
</svg>
