<svg width="28" height="28" viewBox="0 0 28 28" fill="none" xmlns="http://www.w3.org/2000/svg">
<path d="M18.6667 2.33325H9.33333C5.25 2.33325 3.5 4.66659 3.5 8.16659V13.3816C3.5 13.7899 3.89667 14.0699 4.27 13.9299C5.55333 13.4283 7.01167 13.2649 8.51667 13.5683C11.55 14.1749 13.965 16.6716 14.4667 19.7166C14.77 21.5716 14.3967 23.3333 13.545 24.7916C13.3117 25.1766 13.5917 25.6666 14.0467 25.6666H18.6667C22.75 25.6666 24.5 23.3333 24.5 19.8333V8.16659C24.5 4.66659 22.75 2.33325 18.6667 2.33325ZM21.5833 10.7916H19.25C17.4767 10.7916 16.0417 9.35659 16.0417 7.58325V5.24992C16.0417 4.77159 16.4383 4.37492 16.9167 4.37492C17.395 4.37492 17.7917 4.77159 17.7917 5.24992V7.58325C17.7917 8.38825 18.445 9.04159 19.25 9.04159H21.5833C22.0617 9.04159 22.4583 9.43825 22.4583 9.91659C22.4583 10.3949 22.0617 10.7916 21.5833 10.7916Z" fill="#402D28"/>
<path d="M7.00033 15.1667C3.78033 15.1667 1.16699 17.7801 1.16699 21.0001C1.16699 24.2201 3.78033 26.8334 7.00033 26.8334C10.2203 26.8334 12.8337 24.2201 12.8337 21.0001C12.8337 17.7801 10.2203 15.1667 7.00033 15.1667ZM6.02033 22.4817C6.31199 22.7734 6.31199 23.2517 6.02033 23.5551C5.86866 23.7067 5.68199 23.7767 5.48366 23.7767C5.28533 23.7767 5.09866 23.7067 4.94699 23.5551L2.92866 21.5367C2.63699 21.2451 2.63699 20.7667 2.92866 20.4634L4.94699 18.4451C5.23866 18.1534 5.71699 18.1534 6.02033 18.4451C6.31199 18.7367 6.31199 19.2151 6.02033 19.5184L4.53866 21.0001L6.02033 22.4817ZM11.0603 21.5367L9.04199 23.5551C8.89033 23.7067 8.70366 23.7767 8.50533 23.7767C8.30699 23.7767 8.12033 23.7067 7.96866 23.5551C7.67699 23.2634 7.67699 22.7851 7.96866 22.4817L9.46199 21.0001L7.98033 19.5184C7.68866 19.2267 7.68866 18.7484 7.98033 18.4451C8.27199 18.1534 8.75033 18.1534 9.05366 18.4451L11.072 20.4634C11.352 20.7667 11.352 21.2334 11.0603 21.5367Z" fill="#402D28"/>
</svg>
